<svg xmlns="http://www.w3.org/2000/svg" viewBox="0 0 500 500"><g id="freepik--Floor--inject-7"><path id="freepik--floor--inject-7" d="M94.7,444.38C9,394.92,9,314.74,94.7,265.29s224.53-49.46,310.19,0,85.66,129.63,0,179.09S180.36,493.84,94.7,444.38Z" style="fill:#f0f0f0"></path></g><g id="freepik--Shadow--inject-7"><path id="freepik--shadow--inject-7" d="M214.43,353.7c-15.15,4.3-30.27,3.95-45.82,3.53-12.13-.34-27.38-1.41-37.94,5.63-3.87,2.58-7.7,6.38-7.49,11s4.27,8.05,8.19,10.51c15,9.38,32.58,13.69,48,22.25,7.37,4.09,14.16,9.1,21.15,13.79,21.19,14.22,42.63,27.76,68,30.6,10.42,1.17,23.84-1.37,32.66-7a41.79,41.79,0,0,0,9.21-8.5c2.32-2.77,4.35-6.2,7-8.61,4.89-4.45,9-6.41,15.62-6.79s15.59-3.62,20.24-8.32a17.15,17.15,0,0,0,3.45-17.43c-4.53-12.29-17.24-20.61-27.47-27.92a126.8,126.8,0,0,0-36.37-18.22c-18.79-5.75-39.24-6.57-58.14-1.17C227.88,349,221.28,351.75,214.43,353.7Z" style="fill:#e0e0e0"></path></g><g id="freepik--Aura--inject-7"><g id="freepik--aura--inject-7"><circle cx="242.23" cy="165.9" r="112" transform="translate(-46.36 219.88) rotate(-45)" style="fill:#263238;opacity:0.05"></circle><circle cx="242.23" cy="165.9" r="51.26" transform="translate(-45.05 105.33) rotate(-22.5)" style="fill:#263238;opacity:0.1"></circle><circle cx="242.23" cy="165.9" r="78.59" transform="translate(-46.36 219.88) rotate(-45)" style="fill:#263238;opacity:0.07"></circle></g></g><g id="freepik--Character--inject-7"><g id="freepik--character--inject-7"><g id="freepik--Bottom--inject-7"><path d="M250.63,394.39s-39.14-14.75-44-18.8c-4-3.38-1.61-11.46-7.21-12.84-6.44-1.59-11,2-15.19,5.89-3.91,3.71-9,5.38-18.69,1.95s-19-8.34-22.87-6.39-1.29,5.07,15.58,13.1c9.7,4.62,22.05,10,30,13.2a65.75,65.75,0,0,1,16,8.91c10.32,7.45,12.22,9,24.43,16.58,24.41,15.07,38.76,19,58.18,15.25Z" style="fill:#ffbda7"></path><path d="M214,380.41c-7.78,4.48-11.54,9.42-12,18,0,0,5.25,4.07,13.55,9.82,9.95,6.89,34,22.56,50.12,24.2,24.94,2.54,33.48-3.87,33.48-3.87Z" style="fill:#455a64"></path><path d="M206.77,385.24c12.77,22.16,44,35.95,53.75,37-3.46-2.93-8.54-12.87-13.36-23.65L214,379.52A29.16,29.16,0,0,0,206.77,385.24Z" style="fill:#37474f"></path><path d="M133.57,362.35a5.55,5.55,0,0,1,.91-4.6c3.45-4.2,7.85-6.42,10.85-8A23.36,23.36,0,0,1,157,347.52c7.64.47,14.22,6.36,21.87,6.81,5.71.35,10.9-2.65,16.46-4.05a17.28,17.28,0,0,1,5.36-.47c1.52.1,3.94,1.18,4.49,2.53a7,7,0,0,1,.42,5.05c-.34,1.07-2.47,3.09-4,4.2-2.09,1.53-4.69,2-7.8,2.9C186,366.87,150.85,367.72,133.57,362.35Z" style="fill:#37474f"></path><path d="M206.84,373.38c0,.72.12,1.41.2,2.14.1,1-.42,1.28-1.21,1.84-3.22,2.27-7.28,2.05-11,1.39-2.86-.51-5.77-1.34-8.61-.77-3.41.69-6.12,3.26-8.65,5.7a6.63,6.63,0,0,0-1.38,1.86s-19.74-8.69-28.72-13.58c-4.54-2.48-9.79-4.79-13.37-8.71-.2-.21.87-1.59,1-1.72a8.42,8.42,0,0,1,4.54-2.62,22.49,22.49,0,0,1,8.67-.6c4.42.67,8.71,1.87,13.09,2.76a106.39,106.39,0,0,0,11.87,1.72,87.49,87.49,0,0,0,13.05.22,31.44,31.44,0,0,0,11.88-2.59,17.25,17.25,0,0,0,4.08-2.58,12.59,12.59,0,0,0,1.86-2.47c.62-.9,1-2.41,1.61-1.13,1.5,3.06,1.81,7.77,1.6,11.19-.15,2.36-.45,4.7-.53,7.06C206.83,372.8,206.83,373.09,206.84,373.38Z" style="fill:#263238"></path><path d="M206.84,373.38c0,.72.12,1.41.2,2.14.1,1-.42,1.28-1.21,1.84-3.22,2.27-7.28,2.05-11,1.39-2.86-.51-5.77-1.34-8.61-.77-3.41.69-6.12,3.26-8.65,5.7a6.63,6.63,0,0,0-1.38,1.86s-19.74-8.69-28.72-13.58c-4.54-2.48-9.79-4.79-13.37-8.71-.2-.21.87-1.59,1-1.72a8.42,8.42,0,0,1,4.54-2.62,22.49,22.49,0,0,1,8.67-.6c4.42.67,8.71,1.87,13.09,2.76a106.39,106.39,0,0,0,11.87,1.72,87.49,87.49,0,0,0,13.05.22,31.44,31.44,0,0,0,11.88-2.59,17.25,17.25,0,0,0,4.08-2.58,12.59,12.59,0,0,0,1.86-2.47c.62-.9,1-2.41,1.61-1.13,1.5,3.06,1.81,7.77,1.6,11.19-.15,2.36-.45,4.7-.53,7.06C206.83,372.8,206.83,373.09,206.84,373.38Z" style="opacity:0.2"></path><path d="M155.43,359.64c-3.69,5.21-3.67,14.45-3.67,14.45a140.08,140.08,0,0,1-12.56-6.33c-6-3.43-5.63-5.41-5.63-5.41a5.45,5.45,0,0,1,1.74-2.71,10.92,10.92,0,0,1,8-2.48A50.54,50.54,0,0,1,155.43,359.64Z" style="fill:#fafafa"></path><path d="M155.16,371a11,11,0,0,0-.38,4.58,5.11,5.11,0,0,0,2,.95,19.34,19.34,0,0,1,.48-4.71C157.63,370.48,155.61,369.72,155.16,371Z" style="fill:#fafafa"></path><path d="M161.16,373.84a10.7,10.7,0,0,0-.41,4.58,5.27,5.27,0,0,0,2,.93,16.34,16.34,0,0,1,.48-4.69C163.63,373.31,161.61,372.56,161.16,373.84Z" style="fill:#fafafa"></path><path d="M167.16,376.67a10.77,10.77,0,0,0-.38,4.54,4.83,4.83,0,0,0,2,1,19.83,19.83,0,0,1,.48-4.7C169.63,376.15,167.61,375.4,167.16,376.67Z" style="fill:#fafafa"></path><path d="M205.77,354.24a3.9,3.9,0,0,0-.59-1.9s-2,4.17-9,6.59c-6.7,2.29-16.26,3.4-30.06.11s-21.78-6.33-28-3.78-4.51,7.09-4.51,7.09,3-5.66,11.73-4.6c8.43,1,20.85,5.63,32.4,6.07C189.76,364.29,202,362.7,205.77,354.24Z" style="fill:#e0e0e0"></path><path d="M345.36,377.5c-3.85-13.74-15.19-23.72-32.26-38-14.48-12.13-41.25-31.77-41.25-31.77h0l-76.26-15.19c-3.1,13.92-13.25,23.74-13.22,43.09,0,14.08,2.21,33.94,26.84,52.22,14.94,11.09,26.85,19.8,37.56,26.6,11.31,7.18,36.86,21.33,51,14.86,10.81-4.94,12.67-14.44,12.29-22.37h0c1.72.17,3.45.26,5.05.27,1.87.06,3.57,0,4.92,0a33.87,33.87,0,0,0,14.62-3.68C343.93,398.79,348.45,388.52,345.36,377.5Z" style="fill:#455a64"></path><path d="M315.13,407.18c-1.6,0-3.35-.11-5.07-.27C307.57,391.52,249.59,347,249.59,347c4-2,13.37-7,16.5-12.59-1.28,7.16-5.39,10.81-9.37,13.71,6.12,5.49,31.86,27.18,38.72,33.7C302.65,388.69,311.64,397.48,315.13,407.18Z" style="fill:#37474f"></path></g><g id="freepik--Top--inject-7"><path d="M260.35,207.82c11.09,2.64,15.73,3.69,21.11,10.34,3.75,4.64,16.71,37.24,20.27,52.77,2.4,10.47,2.24,25.33-2.4,28.65-4.94,3.53-14.11-1.19-19.53-5.78-3.93-3.34-5.71-5.55-7.76-7.27Z" style="fill:#ffbda7"></path><path d="M285.68,271.75c3.91-.36,9.58.39,12.82,3.76-1.62-3.07-5.93-5.86-13.28-5.16Z" style="fill:#f0997a"></path><path d="M281.44,236.72c-6-12.68-12.55-20.52-21.09-29,0,0-11-2.67-18.4-3.87s-11.51-.81-19.27.05c-3.89.42-15.31,3.28-21.34,4.55.56,17.75,3.9,26.82-7.46,40.73-.29,11.05,1.83,33.23,2.1,40.89.22,6.27-9.11,17-12.62,32.44,14.22,15.57,73,19.95,96.75-8.77a83.29,83.29,0,0,0-7.73-12.09c1.08-13.74,1.37-26.94,1.94-30.4C284.49,261.19,287.07,248.66,281.44,236.72Z" style="fill:#263238"></path><path d="M223.32,128.84s-8.77-1-15,10.45c-7.71,14.2-8.27,29.84-8.08,39.87s3,14.83,8.94,17.86a24.72,24.72,0,0,1-.32-14.26s2.53,14.75,17,18.68,39.81,7.7,47.78-2.38c-3.34-8.43,2-35.83,2-35.83A16.11,16.11,0,0,0,286,149.65c1.1-10.62-5-20.18-13.81-21.45,0,.35-11.51-5.71-11.51-5.71C256.52,117.38,232.28,115.55,223.32,128.84Z" style="fill:#37474f"></path><path d="M221.88,161.15c1-13.43,18-38.55,50.34-33,0,0-3.16-3.74-11.51-5.71-11.31-.16-36.28,2-42.31,36.65A9.16,9.16,0,0,1,221.88,161.15Z" style="fill:#263238"></path><path d="M270.36,135.46c3.89,4.36,8.39,13.44,5.46,38.35-2.49,21.11-9.95,25.15-13.43,26.24-2.9.9-8.72.92-13.18-.45l-1.59,8.4s12.73,13.38,2.38,15.61c-20.64,4.44-30.24-18.06-30.24-18.06l3.54-24.7s-5.87,3.08-11.53-3.14c-4.66-5.13-5.64-13.14-1.25-17s11.63-2,13.88,4.28c0,0,10.95,1.57,24.52-4.34C262.09,154.94,268.18,143.41,270.36,135.46Z" style="fill:#ffbda7"></path><path d="M254.44,186.46A1.48,1.48,0,1,1,253,185,1.47,1.47,0,0,1,254.44,186.46Z" style="fill:#f0997a"></path><path d="M249.21,199.6c-4.41-1-11.07-2.45-16.59-6.38-2.46-1.76-3.91-4.66-5.07-7.95,0,0-.39,5.49,2.87,9.35,4.2,5,18.1,8.52,18.1,8.52Z" style="fill:#f0997a"></path><path d="M224.08,161.76l1.06,10.05a4.73,4.73,0,0,0,4.35-5.34A5.22,5.22,0,0,0,224.08,161.76Z" style="fill:#37474f"></path><path d="M252.79,165.51c.62.39-.34,3.54-3.91,3.62s-4.64-2.5-3.94-3.08,1.64,1.14,4.2.8C251.93,166.48,252.16,165.12,252.79,165.51Z" style="fill:#263238"></path><path d="M273.55,166.42c.52.49-1,3.3-4.43,2.67s-3.92-3.29-3.14-3.71,1.33,1.41,3.83,1.6C272.55,167.18,273,165.92,273.55,166.42Z" style="fill:#263238"></path><path d="M249.22,155.79,243,158a3.45,3.45,0,0,1,2.08-4.31A3.22,3.22,0,0,1,249.22,155.79Z" style="fill:#263238"></path><path d="M275.07,159.43,269,156.7A3.18,3.18,0,0,1,273.3,155,3.48,3.48,0,0,1,275.07,159.43Z" style="fill:#263238"></path><polygon points="258.15 163.23 257.8 179.48 266.47 177.25 258.15 163.23" style="fill:#f0997a"></polygon><g id="freepik--Arm--inject-7"><path d="M274.49,288.84c-1.33-1.17-1.9-1.74-3.44-3.12-2.59-2.33-5.4-3.94-6.25-7.54-1.21-5.12.31-8.28.13-13.3a16,16,0,0,1,.71-6.94s.11-2.79-2.82-9.89c-1.07-2.6-.87-4.76,1.12-5.34-1-3.62.6-4.92,2.34-4.83-.83-2.82-1.31-5.38,1.46-6.59.29-.12,1,.74,1.9,2.75.05-1.89,2.15-3.89,3.07-2.53,4.08,7,4.58,7.31,7.72,13.73,2.68,5.49,3,7.88,3.51,18,.15,2.72-.17,8.92,5.44,12.26" style="fill:#ffbda7"></path><path d="M280.43,245.24a32.11,32.11,0,0,1,1.82,3.67,22.47,22.47,0,0,1,1.15,4,62.28,62.28,0,0,1,.88,8.15c.2,2.72,0,5.46.67,8a10.89,10.89,0,0,0,4.43,6.46,10.06,10.06,0,0,1-3.19-2.58,11.41,11.41,0,0,1-1.92-3.69,18,18,0,0,1-.68-4.1c-.07-1.37-.14-2.71-.23-4.07-.15-2.71-.29-5.42-.65-8.09A30.65,30.65,0,0,0,280.43,245.24Z" style="fill:#f0997a"></path><path d="M274.55,267c-.16-3-.12-3.8-1.34-6.84,0,0-.35-2.78,1.91-10.11.83-2.7.44-4.83-1.6-5.22.66-3.69-1-4.85-2.77-4.6.57-2.88.82-5.48-2.06-6.43-.29-.09-.93.83-1.64,2.92a3.61,3.61,0,0,0-1.42-2.36,12.36,12.36,0,0,0,.65,3.48c-1.74-.09-3.33,1.21-2.34,4.83-2,.58-2.19,2.74-1.12,5.34,2.93,7.1,2.82,9.89,2.82,9.89a16,16,0,0,0-.71,6.94c.18,5-1.34,8.18-.13,13.3a11.37,11.37,0,0,0,6.21,7.61l1.77,1.51a14.8,14.8,0,0,0,3.43-6.42C277.42,275.26,274.83,272.06,274.55,267Z" style="fill:#f0997a"></path></g><path d="M201.34,208.45c-14.73,3.37-20.86,9.15-20.86,27.47,0,12.51,9.12,51,16,68.88,3.43,9,8.18,13.13,22.33,9.51,11.47-2.93,45.81-20,50.38-25.21S255.7,275,250.29,277.42s-30.45,7.26-30.45,7.26L211.45,243S212.81,218,201.34,208.45Z" style="fill:#ffbda7"></path><g id="freepik--arm--inject-7"><path d="M263.33,293.35c7.94-4.45,10.95-8.87,11.74-12.49,1.22-5.62-1.38-8.82-1.65-13.84-.17-3-.13-3.8-1.35-6.84,0,0-.35-2.78,1.91-10.11.83-2.7.44-4.82-1.6-5.22.66-3.69-1.05-4.84-2.77-4.6.57-2.88.82-5.47-2.06-6.42-.29-.1-.93.82-1.64,2.91-.21-1.88-2.49-3.68-3.28-2.24-3.43,7.34-3.9,7.69-6.44,14.37-2.17,5.71-2.24,8.12-1.85,18.26.1,2.72,1.8,7.57-4.05,10.29" style="fill:#ffbda7"></path><path d="M270.89,246.72a58.89,58.89,0,0,0-3.08,9.43c-.27,1.8-.67,5.68-.67,5.68a23.2,23.2,0,0,1,0-6C267.54,251.94,270.89,246.72,270.89,246.72Z" style="fill:#f0997a"></path><path d="M269.17,240.47c-1.21,3.1-3.77,7.45-4.3,9.73a60.66,60.66,0,0,0-1.2,10.5,26.18,26.18,0,0,1,.53-10.84C265.19,246.32,267,244.47,269.17,240.47Z" style="fill:#f0997a"></path><path d="M265.91,236.74c-1.78,4.21-4.65,10.11-5.25,11.85s-1.21,10.3-1.21,10.3a47.89,47.89,0,0,1,0-9C260,246.72,265.91,236.74,265.91,236.74Z" style="fill:#f0997a"></path></g></g></g></g></svg>